<?xml version="1.0" encoding="iso-8859-1"?>
<!-- Generator: Adobe Illustrator 19.0.0, SVG Export Plug-In . SVG Version: 6.00 Build 0)  -->
<svg version="1.1" id="Capa_1" xmlns="http://www.w3.org/2000/svg" xmlns:xlink="http://www.w3.org/1999/xlink" x="0px" y="0px"
	 viewBox="0 0 512 512" style="enable-background:new 0 0 512 512;" xml:space="preserve">
<path style="fill:#EBF0FA;" d="M135.876,280.962L10.105,225.93c-14.174-6.197-13.215-26.621,1.481-31.456L489.845,36.811
	c12.512-4.121,24.705,7.049,21.691,19.881l-95.571,406.351c-2.854,12.14-17.442,17.091-27.09,9.19l-112.3-91.887L135.876,280.962z"
	/>
<path style="fill:#BEC3D2;" d="M396.465,124.56L135.876,280.962l31.885,147.899c2.86,13.269,18.5,19.117,29.364,10.981
	l79.451-59.497l-65.372-53.499l193.495-191.693C410.372,129.532,403.314,120.449,396.465,124.56z"/>
<path style="fill:#AFB4C8;" d="M178.275,441.894c5.858,2.648,13.037,2.302,18.85-2.052l79.451-59.497l-32.686-26.749l-32.686-26.749
	L178.275,441.894z"/>
<g>
</g>
<g>
</g>
<g>
</g>
<g>
</g>
<g>
</g>
<g>
</g>
<g>
</g>
<g>
</g>
<g>
</g>
<g>
</g>
<g>
</g>
<g>
</g>
<g>
</g>
<g>
</g>
<g>
</g>
</svg>
